<svg xmlns="http://www.w3.org/2000/svg" width="1920" height="1080" viewBox="0 0 1920 1080">
  <defs>
    <linearGradient id="sky" x1="0%" y1="0%" x2="0%" y2="100%">
      <stop offset="0%" style="stop-color:#0f172a"/>
      <stop offset="40%" style="stop-color:#1e293b"/>
      <stop offset="70%" style="stop-color:#334155"/>
      <stop offset="100%" style="stop-color:#1e3a5f"/>
    </linearGradient>
    <linearGradient id="glow" x1="50%" y1="100%" x2="50%" y2="0%">
      <stop offset="0%" style="stop-color:#f59e0b;stop-opacity:0.3"/>
      <stop offset="100%" style="stop-color:#f59e0b;stop-opacity:0"/>
    </linearGradient>
    <linearGradient id="building1" x1="0%" y1="0%" x2="0%" y2="100%">
      <stop offset="0%" style="stop-color:#374151"/>
      <stop offset="100%" style="stop-color:#1f2937"/>
    </linearGradient>
    <linearGradient id="building2" x1="0%" y1="0%" x2="0%" y2="100%">
      <stop offset="0%" style="stop-color:#4b5563"/>
      <stop offset="100%" style="stop-color:#374151"/>
    </linearGradient>
    <linearGradient id="glass" x1="0%" y1="0%" x2="100%" y2="100%">
      <stop offset="0%" style="stop-color:#60a5fa;stop-opacity:0.3"/>
      <stop offset="100%" style="stop-color:#3b82f6;stop-opacity:0.1"/>
    </linearGradient>
  </defs>
  
  <!-- Sky -->
  <rect width="1920" height="1080" fill="url(#sky)"/>
  
  <!-- Stars -->
  <circle cx="200" cy="80" r="1.5" fill="#e2e8f0" opacity="0.6"/>
  <circle cx="450" cy="120" r="1" fill="#e2e8f0" opacity="0.4"/>
  <circle cx="700" cy="60" r="1.5" fill="#e2e8f0" opacity="0.7"/>
  <circle cx="900" cy="150" r="1" fill="#e2e8f0" opacity="0.5"/>
  <circle cx="1100" cy="90" r="1.5" fill="#e2e8f0" opacity="0.6"/>
  <circle cx="1350" cy="50" r="1" fill="#e2e8f0" opacity="0.4"/>
  <circle cx="1550" cy="130" r="1.5" fill="#e2e8f0" opacity="0.5"/>
  <circle cx="1700" cy="70" r="1" fill="#e2e8f0" opacity="0.7"/>
  <circle cx="300" cy="200" r="1" fill="#e2e8f0" opacity="0.3"/>
  <circle cx="1200" cy="180" r="1" fill="#e2e8f0" opacity="0.4"/>
  
  <!-- Moon -->
  <circle cx="1600" cy="180" r="40" fill="#fef3c7" opacity="0.9"/>
  <circle cx="1610" cy="170" r="35" fill="url(#sky)"/>
  
  <!-- City glow -->
  <ellipse cx="960" cy="1080" rx="900" ry="400" fill="url(#glow)"/>
  
  <!-- Far buildings -->
  <rect x="100" y="550" width="80" height="530" fill="#1f2937" opacity="0.7"/>
  <rect x="200" y="480" width="100" height="600" fill="#1f2937" opacity="0.6"/>
  <rect x="350" y="520" width="70" height="560" fill="#1f2937" opacity="0.7"/>
  <rect x="1500" y="500" width="90" height="580" fill="#1f2937" opacity="0.6"/>
  <rect x="1620" y="540" width="80" height="540" fill="#1f2937" opacity="0.7"/>
  <rect x="1750" y="470" width="100" height="610" fill="#1f2937" opacity="0.6"/>
  
  <!-- Mid buildings -->
  <rect x="450" y="380" width="120" height="700" fill="url(#building1)"/>
  <rect x="600" y="300" width="140" height="780" fill="url(#building2)"/>
  <rect x="780" y="350" width="100" height="730" fill="url(#building1)"/>
  <rect x="920" y="250" width="160" height="830" fill="url(#building2)"/>
  <rect x="1120" y="320" width="110" height="760" fill="url(#building1)"/>
  <rect x="1270" y="280" width="130" height="800" fill="url(#building2)"/>
  
  <!-- Glass reflections on buildings -->
  <rect x="460" y="390" width="10" height="690" fill="url(#glass)" opacity="0.4"/>
  <rect x="490" y="390" width="10" height="690" fill="url(#glass)" opacity="0.3"/>
  <rect x="520" y="390" width="10" height="690" fill="url(#glass)" opacity="0.4"/>
  <rect x="550" y="390" width="10" height="690" fill="url(#glass)" opacity="0.3"/>
  
  <rect x="615" y="310" width="12" height="770" fill="url(#glass)" opacity="0.4"/>
  <rect x="650" y="310" width="12" height="770" fill="url(#glass)" opacity="0.3"/>
  <rect x="685" y="310" width="12" height="770" fill="url(#glass)" opacity="0.4"/>
  <rect x="720" y="310" width="12" height="770" fill="url(#glass)" opacity="0.3"/>
  
  <rect x="935" y="260" width="14" height="820" fill="url(#glass)" opacity="0.4"/>
  <rect x="975" y="260" width="14" height="820" fill="url(#glass)" opacity="0.3"/>
  <rect x="1015" y="260" width="14" height="820" fill="url(#glass)" opacity="0.4"/>
  <rect x="1055" y="260" width="14" height="820" fill="url(#glass)" opacity="0.3"/>
  
  <!-- Window lights (random) -->
  <rect x="470" y="420" width="8" height="6" fill="#fbbf24" opacity="0.8"/>
  <rect x="500" y="460" width="8" height="6" fill="#fbbf24" opacity="0.6"/>
  <rect x="530" y="440" width="8" height="6" fill="#fbbf24" opacity="0.9"/>
  <rect x="470" y="520" width="8" height="6" fill="#fbbf24" opacity="0.7"/>
  <rect x="540" y="560" width="8" height="6" fill="#fbbf24" opacity="0.5"/>
  
  <rect x="630" y="340" width="8" height="6" fill="#fbbf24" opacity="0.8"/>
  <rect x="660" y="380" width="8" height="6" fill="#fbbf24" opacity="0.6"/>
  <rect x="695" y="360" width="8" height="6" fill="#fbbf24" opacity="0.9"/>
  <rect x="630" y="450" width="8" height="6" fill="#fbbf24" opacity="0.7"/>
  <rect x="720" y="420" width="8" height="6" fill="#fbbf24" opacity="0.5"/>
  
  <rect x="945" y="290" width="10" height="8" fill="#fbbf24" opacity="0.8"/>
  <rect x="985" y="330" width="10" height="8" fill="#fbbf24" opacity="0.6"/>
  <rect x="1025" y="310" width="10" height="8" fill="#fbbf24" opacity="0.9"/>
  <rect x="945" y="400" width="10" height="8" fill="#fbbf24" opacity="0.7"/>
  <rect x="1060" y="370" width="10" height="8" fill="#fbbf24" opacity="0.5"/>
  <rect x="985" y="480" width="10" height="8" fill="#fbbf24" opacity="0.8"/>
  <rect x="1025" y="520" width="10" height="8" fill="#fbbf24" opacity="0.7"/>
  
  <rect x="1135" y="350" width="8" height="6" fill="#fbbf24" opacity="0.6"/>
  <rect x="1165" y="390" width="8" height="6" fill="#fbbf24" opacity="0.8"/>
  <rect x="1195" y="370" width="8" height="6" fill="#fbbf24" opacity="0.5"/>
  
  <rect x="1285" y="310" width="8" height="6" fill="#fbbf24" opacity="0.7"/>
  <rect x="1320" y="350" width="8" height="6" fill="#fbbf24" opacity="0.9"/>
  <rect x="1355" y="330" width="8" height="6" fill="#fbbf24" opacity="0.6"/>
  <rect x="1285" y="420" width="8" height="6" fill="#fbbf24" opacity="0.8"/>
  <rect x="1355" y="460" width="8" height="6" fill="#fbbf24" opacity="0.5"/>
</svg>
